<mxfile host="app.diagrams.net" modified="2021-05-26T07:58:04.377Z" agent="5.0 (Macintosh; Intel Mac OS X 10_15_7) AppleWebKit/537.36 (KHTML, like Gecko) Chrome/90.0.4430.212 Safari/537.36" etag="VtEEkuXl5Cqc0DepDrR2" version="14.7.0" type="github">
  <diagram name="Page-1" id="e3a06f82-3646-2815-327d-82caf3d4e204">
    <mxGraphModel dx="946" dy="542" grid="1" gridSize="10" guides="1" tooltips="1" connect="1" arrows="1" fold="1" page="1" pageScale="1.5" pageWidth="1169" pageHeight="826" background="none" math="0" shadow="0">
      <root>
        <mxCell id="0" style=";html=1;" />
        <mxCell id="1" style=";html=1;" parent="0" />
        <mxCell id="6a7d8f32e03d9370-14" value="" style="verticalLabelPosition=bottom;aspect=fixed;html=1;verticalAlign=top;strokeColor=none;shape=mxgraph.citrix.xenclient_synchronizer;fillColor=#CCCCCC;gradientColor=#000000;gradientDirection=south;fontSize=14;" parent="1" vertex="1">
          <mxGeometry x="683.9999999999999" y="480" width="76" height="91" as="geometry" />
        </mxCell>
        <mxCell id="tKEfwbFhdCULU2XF3h3x-2" style="edgeStyle=orthogonalEdgeStyle;rounded=0;orthogonalLoop=1;jettySize=auto;html=1;" edge="1" parent="1" source="tKEfwbFhdCULU2XF3h3x-1">
          <mxGeometry relative="1" as="geometry">
            <mxPoint x="583.5" y="385.5" as="targetPoint" />
          </mxGeometry>
        </mxCell>
        <mxCell id="tKEfwbFhdCULU2XF3h3x-6" value="策略阻断" style="edgeLabel;html=1;align=center;verticalAlign=middle;resizable=0;points=[];fontSize=11;fontColor=#000000;" vertex="1" connectable="0" parent="tKEfwbFhdCULU2XF3h3x-2">
          <mxGeometry x="-0.1667" y="4" relative="1" as="geometry">
            <mxPoint x="3" y="-6" as="offset" />
          </mxGeometry>
        </mxCell>
        <mxCell id="tKEfwbFhdCULU2XF3h3x-1" value="Actor" style="shape=umlActor;verticalLabelPosition=bottom;verticalAlign=top;html=1;outlineConnect=0;" vertex="1" parent="1">
          <mxGeometry x="460" y="355" width="30" height="60" as="geometry" />
        </mxCell>
        <mxCell id="tKEfwbFhdCULU2XF3h3x-3" value="X" style="text;html=1;strokeColor=none;fillColor=none;align=center;verticalAlign=middle;whiteSpace=wrap;rounded=0;fontColor=#FF0000;fontSize=20;" vertex="1" parent="1">
          <mxGeometry x="578.5" y="381" width="10" height="10" as="geometry" />
        </mxCell>
        <mxCell id="tKEfwbFhdCULU2XF3h3x-23" style="edgeStyle=orthogonalEdgeStyle;rounded=0;orthogonalLoop=1;jettySize=auto;html=1;entryX=0.5;entryY=1;entryDx=0;entryDy=0;fontSize=11;fontColor=#000000;" edge="1" parent="1" target="tKEfwbFhdCULU2XF3h3x-22">
          <mxGeometry relative="1" as="geometry">
            <mxPoint x="715" y="480" as="sourcePoint" />
            <Array as="points">
              <mxPoint x="715" y="480" />
              <mxPoint x="715" y="480" />
            </Array>
          </mxGeometry>
        </mxCell>
        <mxCell id="tKEfwbFhdCULU2XF3h3x-24" value="服务阻断" style="edgeLabel;html=1;align=center;verticalAlign=middle;resizable=0;points=[];fontSize=11;fontColor=#000000;" vertex="1" connectable="0" parent="tKEfwbFhdCULU2XF3h3x-23">
          <mxGeometry x="-0.223" relative="1" as="geometry">
            <mxPoint as="offset" />
          </mxGeometry>
        </mxCell>
        <mxCell id="tKEfwbFhdCULU2XF3h3x-4" value="&lt;font style=&quot;font-size: 11px&quot;&gt;风控平台&lt;/font&gt;" style="text;html=1;strokeColor=none;fillColor=none;align=center;verticalAlign=middle;whiteSpace=wrap;rounded=0;fontSize=11;" vertex="1" parent="1">
          <mxGeometry x="697" y="500" width="50" height="20" as="geometry" />
        </mxCell>
        <mxCell id="tKEfwbFhdCULU2XF3h3x-18" style="edgeStyle=orthogonalEdgeStyle;rounded=0;orthogonalLoop=1;jettySize=auto;html=1;entryX=-0.039;entryY=0.549;entryDx=0;entryDy=0;entryPerimeter=0;fontSize=11;fontColor=#000000;" edge="1" parent="1" source="tKEfwbFhdCULU2XF3h3x-7" target="tKEfwbFhdCULU2XF3h3x-13">
          <mxGeometry relative="1" as="geometry">
            <Array as="points">
              <mxPoint x="650" y="405" />
              <mxPoint x="650" y="405" />
            </Array>
          </mxGeometry>
        </mxCell>
        <mxCell id="tKEfwbFhdCULU2XF3h3x-7" value="Client" style="verticalLabelPosition=bottom;aspect=fixed;html=1;verticalAlign=top;strokeColor=none;shape=mxgraph.citrix.pda;fillColor=#66B2FF;gradientColor=#0066CC;fontSize=14;" vertex="1" parent="1">
          <mxGeometry x="588.5" y="355" width="30" height="61" as="geometry" />
        </mxCell>
        <mxCell id="tKEfwbFhdCULU2XF3h3x-13" value="" style="verticalLabelPosition=bottom;aspect=fixed;html=1;verticalAlign=top;strokeColor=none;shape=mxgraph.citrix.xenclient_synchronizer;fillColor=#CCCCCC;gradientColor=#000000;gradientDirection=south;fontSize=14;" vertex="1" parent="1">
          <mxGeometry x="759.9999999999999" y="355" width="76" height="91" as="geometry" />
        </mxCell>
        <mxCell id="tKEfwbFhdCULU2XF3h3x-14" value="&lt;font style=&quot;font-size: 11px&quot;&gt;认证服务&lt;/font&gt;" style="text;html=1;strokeColor=none;fillColor=none;align=center;verticalAlign=middle;whiteSpace=wrap;rounded=0;fontSize=11;" vertex="1" parent="1">
          <mxGeometry x="774" y="375" width="50" height="20" as="geometry" />
        </mxCell>
        <mxCell id="tKEfwbFhdCULU2XF3h3x-15" style="edgeStyle=orthogonalEdgeStyle;rounded=0;orthogonalLoop=1;jettySize=auto;html=1;" edge="1" parent="1">
          <mxGeometry relative="1" as="geometry">
            <mxPoint x="490" y="405.5" as="sourcePoint" />
            <mxPoint x="590" y="406" as="targetPoint" />
            <Array as="points">
              <mxPoint x="560" y="406" />
            </Array>
          </mxGeometry>
        </mxCell>
        <mxCell id="tKEfwbFhdCULU2XF3h3x-20" value="" style="endArrow=classic;html=1;fontSize=11;fontColor=#000000;exitX=-0.013;exitY=0.429;exitDx=0;exitDy=0;exitPerimeter=0;entryX=0.917;entryY=0.984;entryDx=0;entryDy=0;entryPerimeter=0;" edge="1" parent="1" source="6a7d8f32e03d9370-14" target="tKEfwbFhdCULU2XF3h3x-7">
          <mxGeometry width="50" height="50" relative="1" as="geometry">
            <mxPoint x="630" y="530" as="sourcePoint" />
            <mxPoint x="680" y="480" as="targetPoint" />
          </mxGeometry>
        </mxCell>
        <mxCell id="tKEfwbFhdCULU2XF3h3x-21" value="下发风控策略" style="edgeLabel;html=1;align=center;verticalAlign=middle;resizable=0;points=[];fontSize=11;fontColor=#000000;" vertex="1" connectable="0" parent="tKEfwbFhdCULU2XF3h3x-20">
          <mxGeometry x="0.0408" relative="1" as="geometry">
            <mxPoint x="-30" y="15" as="offset" />
          </mxGeometry>
        </mxCell>
        <mxCell id="tKEfwbFhdCULU2XF3h3x-22" value="X" style="text;html=1;strokeColor=none;fillColor=none;align=center;verticalAlign=middle;whiteSpace=wrap;rounded=0;fontColor=#FF0000;fontSize=20;" vertex="1" parent="1">
          <mxGeometry x="710" y="400.5" width="10" height="10" as="geometry" />
        </mxCell>
      </root>
    </mxGraphModel>
  </diagram>
</mxfile>
